/* XPM */
static char * iterate_once_xpm[] = {
"15 15 7 1",
" 	c None",
".	c #E5E5E5",
"+	c #EB943F",
"@	c #000000",
"#	c #0B0B0B",
"$	c #8F8F8F",
"%	c #DEDEDE",
".....+...+.....",
".....++..+.....",
".....+++.+.....",
".....+++++.....",
"....@+++.+@....",
"...#$++..+$#...",
"...@%+...+%@...",
"...@.......@...",
"...@%.....%@...",
"...#$.....$#...",
"....@$...$@....",
".....#@@@#.....",
"...............",
"...............",
"..............."};
