/* XPM */
static char * Nb_xpm[] = {
"19 17 84 1",
" 	c None",
".	c #E5E5E5",
"+	c #D6D6D6",
"@	c #A1A09F",
"#	c #5F5F5E",
"$	c #4F4F4F",
"%	c #CAC9C8",
"&	c #393939",
"*	c #CFCFCF",
"=	c #D1D1D1",
"-	c #272726",
";	c #3F3E3E",
">	c #020202",
",	c #7C7B7A",
"'	c #0F0F0F",
")	c #B9B8B8",
"!	c #D7D7D7",
"~	c #1D1D1D",
"{	c #403F3F",
"]	c #151515",
"^	c #252525",
"/	c #BFBFBF",
"(	c #CCCCCC",
"_	c #B2B1B1",
":	c #B5B4B3",
"<	c #575757",
"[	c #383737",
"}	c #5D5C5C",
"|	c #C0C0C0",
"1	c #C3C3C3",
"2	c #656565",
"3	c #232323",
"4	c #171717",
"5	c #838382",
"6	c #686867",
"7	c #A7A6A5",
"8	c #131313",
"9	c #A2A2A1",
"0	c #B8B7B6",
"a	c #BDBCBC",
"b	c #090909",
"c	c #737272",
"d	c #E2E2E2",
"e	c #787777",
"f	c #282827",
"g	c #BDBCBB",
"h	c #565555",
"i	c #C1C0C0",
"j	c #D0D0D0",
"k	c #1A1919",
"l	c #B3B2B2",
"m	c #1A1A1A",
"n	c #A3A3A2",
"o	c #C0C0BF",
"p	c #222222",
"q	c #7B7A7A",
"r	c #0E0E0E",
"s	c #BCBBBB",
"t	c #C5C4C4",
"u	c #BFBEBD",
"v	c #A09F9E",
"w	c #777776",
"x	c #050505",
"y	c #BEBDBD",
"z	c #BAB9B8",
"A	c #A6A5A4",
"B	c #242424",
"C	c #CCCBCA",
"D	c #000000",
"E	c #BCBCBB",
"F	c #A5A4A3",
"G	c #181818",
"H	c #BEBDBC",
"I	c #4B4B4A",
"J	c #5A5A59",
"K	c #60605F",
"L	c #818080",
"M	c #302F2F",
"N	c #ABAAAA",
"O	c #313131",
"P	c #454544",
"Q	c #4D4C4C",
"R	c #747373",
"S	c #D8D8D7",
"...................",
"...................",
"..........+@.......",
"..#$%...&*=-.......",
"..;>,...')!~.......",
"..{]^)..'/(~._:....",
"..{<[}..'|1]2345...",
"..{6789.'0abcdefg..",
"..{6.h;d'ijk..lmn..",
"..{6.opqrst~..ukv..",
"..{6..w~xyz~..AB_..",
"..{6..C[DEFGH)IJ...",
"..KL...@M=NOPQRS...",
"...................",
"...................",
"...................",
"..................."};
