/* XPM */
static char * pause_unactive_xpm[] = {
"12 15 78 1",
" 	g None",
".	g #D3D3D3",
"+	g #B2B2B2",
"@	g #B4B4B4",
"#	g #BABABA",
"$	g #BDBDBD",
"%	g #E0E0E0",
"&	g #D7D7D7",
"*	g #B0B0B0",
"=	g #B7B7B7",
"-	g #D2D2D2",
";	g #D6D6D6",
">	g #E2E2E2",
",	g #B3B3B3",
"'	g #919191",
")	g #9C9C9C",
"!	g #A2A2A2",
"~	g #9E9E9E",
"{	g #D4D4D4",
"]	g #878787",
"^	g #A6A6A6",
"/	g #C2C2C2",
"(	g #ACACAC",
"_	g #C9C9C9",
":	g #B8B8B8",
"<	g #959595",
"[	g #A5A5A5",
"}	g #9B9B9B",
"|	g #A1A1A1",
"1	g #979797",
"2	g #C0C0C0",
"3	g #BCBCBC",
"4	g #A0A0A0",
"5	g #B9B9B9",
"6	g #A8A8A8",
"7	g #A3A3A3",
"8	g #9D9D9D",
"9	g #9F9F9F",
"0	g #ADADAD",
"a	g #A4A4A4",
"b	g #C5C5C5",
"c	g #CFCFCF",
"d	g #A9A9A9",
"e	g #C8C8C8",
"f	g #AAAAAA",
"g	g #B1B1B1",
"h	g #CBCBCB",
"i	g #999999",
"j	g #D8D8D8",
"k	g #C4C4C4",
"l	g #D5D5D5",
"m	g #C1C1C1",
"n	g #AEAEAE",
"o	g #9A9A9A",
"p	g #7F7F7F",
"q	g #BEBEBE",
"r	g #C7C7C7",
"s	g #CDCDCD",
"t	g #8C8C8C",
"u	g #DEDEDE",
"v	g #CCCCCC",
"w	g #848484",
"x	g #DADADA",
"y	g #C3C3C3",
"z	g #969696",
"A	g #8D8D8D",
"B	g #BFBFBF",
"C	g #A7A7A7",
"D	g #AFAFAF",
"E	g #909090",
"F	g #ABABAB",
"G	g #707070",
"H	g #646464",
"I	g #B5B5B5",
"J	g #828282",
"K	g #8F8F8F",
"L	g #696969",
"M	g #CACACA",
".+@#$%&*=-;>",
",')!~{=]^/(_",
":<[~}{=~|[12",
"344}~{56789$",
"/7~||{_08a6b",
"cd~||{e79fgh",
"#9||ijk4gd|3",
"34a[1lm43nob",
"h768p;k!qf}r",
"s47!tu$4^9ov",
"54|9wxy||!zb",
":~~7A{BCd6]D",
"(E~9d;0zCD75",
"FGi~~.CH)nIm",
"yJKd0x#L]DIM"};
