/* XPM */
static char * play_one_xpm[] = {
"15 15 111 2",
"  	c None",
". 	c #97D48A",
"+ 	c #C5DEC0",
"@ 	c #E5E5E5",
"# 	c #58C141",
"$ 	c #3DB71F",
"% 	c #77C95F",
"& 	c #CAE0C2",
"* 	c #E4E5E4",
"= 	c #000000",
"- 	c #51BF42",
"; 	c #30B415",
"> 	c #38B713",
", 	c #48BD1A",
"' 	c #85CF60",
") 	c #D0E1C5",
"! 	c #4BBD44",
"~ 	c #25B017",
"{ 	c #2FB414",
"] 	c #3CB911",
"^ 	c #47BD0F",
"/ 	c #54C20F",
"( 	c #91D45C",
"_ 	c #CFE2BD",
": 	c #54C140",
"< 	c #2EB314",
"[ 	c #2FB413",
"} 	c #37B711",
"| 	c #41BB0F",
"1 	c #4EC00C",
"2 	c #5BC509",
"3 	c #67C812",
"4 	c #58C33F",
"5 	c #38B811",
"6 	c #3DB910",
"7 	c #3FBA10",
"8 	c #43BC0E",
"9 	c #4BBF0C",
"0 	c #57C409",
"a 	c #65C905",
"b 	c #72CE02",
"c 	c #84D50B",
"d 	c #ADDF57",
"e 	c #56C240",
"f 	c #36B611",
"g 	c #49BE0D",
"h 	c #56C409",
"i 	c #60C706",
"j 	c #6FCD02",
"k 	c #7FD301",
"l 	c #89D602",
"m 	c #DDE7BC",
"n 	c #53C041",
"o 	c #32B512",
"p 	c #3AB810",
"q 	c #3FBA0F",
"r 	c #47BD0E",
"s 	c #57C309",
"t 	c #5DC607",
"u 	c #69CB04",
"v 	c #76D001",
"w 	c #84D401",
"x 	c #BAE717",
"y 	c #DCEAA1",
"z 	c #36B711",
"A 	c #3DB90F",
"B 	c #45BD0D",
"C 	c #4BBE0C",
"D 	c #52C10A",
"E 	c #5EC607",
"F 	c #68CA04",
"G 	c #6CCB02",
"H 	c #7BD201",
"I 	c #55C240",
"J 	c #32B513",
"K 	c #3CB90F",
"L 	c #43BC0D",
"M 	c #4ABE0B",
"N 	c #55C308",
"O 	c #5FC705",
"P 	c #66C903",
"Q 	c #78D10A",
"R 	c #A4DB57",
"S 	c #57C33F",
"T 	c #3BB90F",
"U 	c #3FBA0E",
"V 	c #45BD0C",
"W 	c #4DC00A",
"X 	c #57C407",
"Y 	c #67CA0F",
"Z 	c #97D654",
"` 	c #D3E3BF",
" .	c #E4E5E3",
"..	c #58C23F",
"+.	c #38B810",
"@.	c #40BB0E",
"#.	c #46BD0C",
"$.	c #48BE0B",
"%.	c #4FC10C",
"&.	c #8DD35B",
"*.	c #CEE1BC",
"=.	c #39B810",
"-.	c #4EC014",
";.	c #87D05C",
">.	c #CFE1C4",
",.	c #5AC43F",
"'.	c #44BC1A",
").	c #7CCC5C",
"!.	c #CBE0C1",
"~.	c #94D589",
"{.	c #C6DEBF",
". + @ @ @ @ @ @ @ @ @ @ @ @ @ ",
"# $ % & * @ @ @ @ @ @ = = @ @ ",
"- ; > , ' ) @ @ @ @ = = = @ @ ",
"! ~ { ] ^ / ( _ @ = = = = @ @ ",
": < [ } | 1 2 3 = = = = = @ @ ",
"4 5 6 7 8 9 0 a b c d = = @ @ ",
"e f 6 8 g 1 h i j k l = = m @ ",
"n o p q r 1 s t u v w = = x y ",
"n [ z A B C D E F G H = = m @ ",
"I J z K L M N O P Q R = = @ @ ",
"S } T U V W X Y Z `  .= = @ @ ",
"..+.@.#.$.%.&.*.@ @ @ = = @ @ ",
"4 =.@.-.;.>.@ @ @ = = = = = @ ",
",.'.).!. .@ @ @ @ = = = = = @ ",
"~.{.@ @ @ @ @ @ @ @ @ @ @ @ @ "};
