/* XPM */
static char * quit_xpm[] = {
"18 17 75 1",
" 	c #E5E5E5",
".	c #080600",
"+	c #202000",
"@	c #0C1000",
"#	c #070000",
"$	c #150F00",
"%	c #0F0900",
"&	c #141000",
"*	c #191500",
"=	c #07000B",
"-	c #080000",
";	c #060600",
">	c #100C00",
",	c #0C0400",
"'	c #0E0100",
")	c #120200",
"!	c #120500",
"~	c #080003",
"{	c #090600",
"]	c #0F1000",
"^	c #060A00",
"/	c #0C0B00",
"(	c #0C0800",
"_	c #080300",
":	c #1D1300",
"<	c #130400",
"[	c #070900",
"}	c #040700",
"|	c #0C0F00",
"1	c #000200",
"2	c #030500",
"3	c #060900",
"4	c #0B0E00",
"5	c #040B00",
"6	c #020401",
"7	c #050800",
"8	c #0E1300",
"9	c #030600",
"0	c #050503",
"a	c #00000B",
"b	c #000000",
"c	c #0D0D00",
"d	c #070800",
"e	c #110F00",
"f	c #060400",
"g	c #030400",
"h	c #010100",
"i	c #110B00",
"j	c #0F0A00",
"k	c #100A00",
"l	c #0C0500",
"m	c #090400",
"n	c #060800",
"o	c #0F1400",
"p	c #070B00",
"q	c #130F00",
"r	c #130700",
"s	c #0E0000",
"t	c #170A00",
"u	c #1C1D00",
"v	c #0E0300",
"w	c #150D00",
"x	c #171500",
"y	c #0F0000",
"z	c #180300",
"A	c #170800",
"B	c #140D00",
"C	c #110E00",
"D	c #110600",
"E	c #150C00",
"F	c #120300",
"G	c #170600",
"H	c #120900",
"I	c #120C00",
"J	c #140A00",
"                  ",
"                  ",
"     .      +     ",
"    @##    $%&    ",
"   *#=-;  >,')!   ",
"    ~#{]^/(_:<    ",
"     [}}|1234     ",
"      5@2678      ",
"      90abcd      ",
"     efghcfij     ",
"    klmnopqrst    ",
"   ujvw4  xyzAB   ",
"    CDE    FGH    ",
"     I      J     ",
"                  ",
"                  ",
"                  "};
