/* XPM */
static char * SNR_xpm[] = {
"35 17 125 2",
"  	c None",
". 	c #E5E5E5",
"+ 	c #C7C7C6",
"@ 	c #7B7A7A",
"# 	c #3B3B3B",
"$ 	c #252525",
"% 	c #222222",
"& 	c #2D2D2D",
"* 	c #4B4B4A",
"= 	c #939392",
"- 	c #A5A4A4",
"; 	c #141414",
"> 	c #595958",
", 	c #ACABAB",
"' 	c #191918",
") 	c #969595",
"! 	c #1F1F1F",
"~ 	c #212120",
"{ 	c #20201F",
"] 	c #434342",
"^ 	c #A4A3A3",
"/ 	c #DCDBDB",
"( 	c #505050",
"_ 	c #646363",
": 	c #868685",
"< 	c #858584",
"[ 	c #727171",
"} 	c #4C4C4B",
"| 	c #9F9E9D",
"1 	c #000000",
"2 	c #040404",
"3 	c #A09F9E",
"4 	c #A8A7A6",
"5 	c #050505",
"6 	c #8F8E8E",
"7 	c #030303",
"8 	c #8B8B8A",
"9 	c #898888",
"0 	c #747473",
"a 	c #2E2E2D",
"b 	c #262626",
"c 	c #AFAEAD",
"d 	c #B8B7B6",
"e 	c #131313",
"f 	c #757574",
"g 	c #D5D4D3",
"h 	c #020202",
"i 	c #070707",
"j 	c #393939",
"k 	c #B7B6B5",
"l 	c #E1E0DF",
"m 	c #A1A1A0",
"n 	c #090909",
"o 	c #8A8988",
"p 	c #B6B5B4",
"q 	c #111111",
"r 	c #565656",
"s 	c #121211",
"t 	c #797878",
"u 	c #BAB9B9",
"v 	c #080808",
"w 	c #888787",
"x 	c #D8D8D8",
"y 	c #101010",
"z 	c #5E5D5D",
"A 	c #A6A5A4",
"B 	c #C0C0BF",
"C 	c #474747",
"D 	c #ABAAAA",
"E 	c #DDDCDC",
"F 	c #CDCCCB",
"G 	c #676766",
"H 	c #242424",
"I 	c #6C6B6B",
"J 	c #272726",
"K 	c #0F0F0F",
"L 	c #353534",
"M 	c #626261",
"N 	c #ADACAB",
"O 	c #1B1B1B",
"P 	c #5A5A59",
"Q 	c #5C5B5B",
"R 	c #70706F",
"S 	c #6A6969",
"T 	c #818080",
"U 	c #B8B8B7",
"V 	c #525251",
"W 	c #787777",
"X 	c #6B6A6A",
"Y 	c #5D5C5C",
"Z 	c #D8D8D7",
"` 	c #4F4F4F",
" .	c #161616",
"..	c #A2A2A1",
"+.	c #BEBDBC",
"@.	c #2B2B2B",
"#.	c #9A9998",
"$.	c #B0AFAE",
"%.	c #B3B2B2",
"&.	c #929190",
"*.	c #8C8C8B",
"=.	c #404040",
"-.	c #4A4A49",
";.	c #CAC9C8",
">.	c #D1D0CF",
",.	c #949493",
"'.	c #828181",
").	c #010101",
"!.	c #0E0E0E",
"~.	c #7F7E7E",
"{.	c #232323",
"].	c #414141",
"^.	c #616160",
"/.	c #484848",
"(.	c #1E1E1E",
"_.	c #636262",
":.	c #0C0C0C",
"<.	c #3E3D3D",
"[.	c #5E5E5E",
"}.	c #B4B3B2",
"|.	c #B9B8B8",
"1.	c #A9A8A7",
"2.	c #C5C4C3",
"3.	c #4F4E4E",
"4.	c #807F7F",
". . . . . . . . . . . . . . . . . . . . . . . . . . . . . . . . . . . ",
". . . . . . . . . . . . . . . . . . . . . . . . . . . . . . . . . . . ",
". . . . . . . . . . . . . . . . . . . . . . . . . . . . . . . . . . . ",
". . . + @ # $ % & * = . . - ; > . . . . , ' - . ) ; ! ~ { ~ ] ^ . . . ",
". . / ( { _ : < [ } [ . . | 1 2 3 . . . 4 5 | . 6 7 [ 8 9 0 a b c . . ",
". . d e f . . . . . g . . | h i j g . . 4 5 | . 6 5 k l l l m n o . . ",
". . p q f . . . . . . . . | 2 r s t . . 4 5 | . 6 5 k l l l u v w . . ",
". . x > y z A B . . . . . | 5 A C $ D . 4 5 | . 6 5 k l E F G H D . . ",
". . . B I J K L M - . . . | 5 4 N O P . 4 5 | . 6 7 Q R S * ~ T . . . ",
". . . . . U 6 V e ! W . . | 5 4 . X q m 4 5 | . 6 1 ; ' e 2 Y . . . . ",
". . . . . . . . Z `  .... | 5 4 . +.j @.#.5 | . 6 5 $.. / ( O %.. . . ",
". . . . . . . . . c 2 &.. | 5 4 . . *.e =.2 | . 6 5 k . . p { -.;.. . ",
". . >.,.>.. . . . '. .m . | 5 4 . . . C 2 ).| . 6 5 k . . . t !.~.. . ",
". . k { {.].Y ^./.(._.. . | 5 4 . . . p :.1 | . 6 5 k . . . >.<.! c . ",
". . . , T [.* -.z | . . . }.* |.. . . . T C }.. 1.} 2.. . . . N 3.4.. ",
". . . . . . . . . . . . . . . . . . . . . . . . . . . . . . . . . . . ",
". . . . . . . . . . . . . . . . . . . . . . . . . . . . . . . . . . . "};
