/* XPM */
static char * open_book_xpm[] = {
"16 16 208 2",
"  	c #E5E5E5",
". 	c #B0B5BE",
"+ 	c #59549B",
"@ 	c #364068",
"# 	c #2F4174",
"$ 	c #4A4365",
"% 	c #857A60",
"& 	c #AC9996",
"* 	c #A6988E",
"= 	c #A29A8D",
"- 	c #968E8B",
"; 	c #9F9EA2",
"> 	c #ADADB3",
", 	c #A5A7A8",
"' 	c #B4B4B7",
") 	c #A1ADB3",
"! 	c #696EAA",
"~ 	c #414A76",
"{ 	c #262D37",
"] 	c #413037",
"^ 	c #544045",
"/ 	c #5B4548",
"( 	c #60564E",
"_ 	c #71685E",
": 	c #887B90",
"< 	c #919492",
"[ 	c #A0A3AF",
"} 	c #7B818D",
"| 	c #636474",
"1 	c #A0ABBB",
"2 	c #2C348F",
"3 	c #454BB4",
"4 	c #7C6B8B",
"5 	c #B0825F",
"6 	c #997159",
"7 	c #7E6751",
"8 	c #615D72",
"9 	c #5C6670",
"0 	c #73798B",
"a 	c #7F8982",
"b 	c #979DA8",
"c 	c #868AA0",
"d 	c #5F5E78",
"e 	c #A3ACB9",
"f 	c #2D3691",
"g 	c #3E44C1",
"h 	c #6E537C",
"i 	c #C47B5D",
"j 	c #BF7961",
"k 	c #AC7C76",
"l 	c #6D5AB1",
"m 	c #646FD2",
"n 	c #5669A0",
"o 	c #7D878A",
"p 	c #8C9196",
"q 	c #88899D",
"r 	c #605D79",
"s 	c #A4A9C2",
"t 	c #2F358D",
"u 	c #3A46B5",
"v 	c #6A5573",
"w 	c #BF7B5D",
"x 	c #C57D56",
"y 	c #BD7F5B",
"z 	c #856485",
"A 	c #463FBC",
"B 	c #3A429F",
"C 	c #666B7C",
"D 	c #919391",
"E 	c #87848B",
"F 	c #635F74",
"G 	c #A4A8C4",
"H 	c #2E3591",
"I 	c #3C46B8",
"J 	c #6C5579",
"K 	c #BD7B60",
"L 	c #B97C57",
"M 	c #C37F5C",
"N 	c #B97E68",
"O 	c #664C9E",
"P 	c #393DA3",
"Q 	c #636C7F",
"R 	c #8B8D82",
"S 	c #978C87",
"T 	c #7B6C6E",
"U 	c #A4A9C0",
"V 	c #2E3690",
"W 	c #3D45B9",
"X 	c #6E547B",
"Y 	c #C17C58",
"Z 	c #BC7D61",
"` 	c #BE7D52",
" .	c #C37D5C",
"..	c #9A7385",
"+.	c #463C83",
"@.	c #656D82",
"#.	c #888783",
"$.	c #928383",
"%.	c #7F6B69",
"&.	c #A3A9C0",
"*.	c #2C358F",
"=.	c #3C44BA",
"-.	c #6D537C",
";.	c #C37A53",
">.	c #C07C62",
",.	c #BE7E54",
"'.	c #C37D55",
").	c #B87D64",
"!.	c #7E596B",
"~.	c #696B79",
"{.	c #888588",
"].	c #897E7B",
"^.	c #7E6B6A",
"/.	c #A4AAC2",
"(.	c #2C3490",
"_.	c #3D45BC",
":.	c #6F557E",
"<.	c #C47B5F",
"[.	c #C07C5D",
"}.	c #BE7967",
"|.	c #C47F54",
"1.	c #B07A63",
"2.	c #6E6B67",
"3.	c #838181",
"4.	c #7C7768",
"5.	c #7C6D6A",
"6.	c #A4A9C3",
"7.	c #2D3591",
"8.	c #3C45BC",
"9.	c #6F547F",
"0.	c #C07D5D",
"a.	c #C07B5A",
"b.	c #C37A64",
"c.	c #BF7B58",
"d.	c #BE7A5B",
"e.	c #B27A57",
"f.	c #756D64",
"g.	c #807B83",
"h.	c #787766",
"i.	c #7B6A6A",
"j.	c #2D3593",
"k.	c #3843BF",
"l.	c #70557E",
"m.	c #BC8153",
"n.	c #C37D5E",
"o.	c #C77A55",
"p.	c #C07F5E",
"q.	c #BD8058",
"r.	c #AD7759",
"s.	c #746965",
"t.	c #847F8D",
"u.	c #686769",
"v.	c #6C626F",
"w.	c #A5A9BE",
"x.	c #2E3389",
"y.	c #3949C1",
"z.	c #73567C",
"A.	c #BB7B5B",
"B.	c #C07B55",
"C.	c #C67960",
"D.	c #C37B65",
"E.	c #B77B65",
"F.	c #966D6D",
"G.	c #716A6D",
"H.	c #7A797F",
"I.	c #57586F",
"J.	c #5F5D7B",
"K.	c #AFB0BD",
"L.	c #35336A",
"M.	c #3F499F",
"N.	c #705679",
"O.	c #C07964",
"P.	c #BF7D5E",
"Q.	c #C08257",
"R.	c #BE7F57",
"S.	c #8C6585",
"T.	c #483B94",
"U.	c #6A6A7B",
"V.	c #74797A",
"W.	c #50545D",
"X.	c #605F76",
"Y.	c #D4D3D7",
"Z.	c #8387A0",
"`.	c #675763",
" +	c #7C573B",
".+	c #A37453",
"++	c #B18267",
"@+	c #816589",
"#+	c #4743B4",
"$+	c #383FA7",
"%+	c #666C84",
"&+	c #737B78",
"*+	c #626664",
"=+	c #93929F",
"-+	c #C9C6C5",
";+	c #8F8279",
">+	c #5D4859",
",+	c #332F7C",
"'+	c #3A43AE",
")+	c #38399F",
"!+	c #65697C",
"~+	c #5F625F",
"{+	c #D2D2D1",
"]+	c #C4C5C9",
"^+	c #7A7A8E",
"/+	c #414362",
"(+	c #63636D",
"_+	c #D7D7D7",
"  . + @ # $ % & * = - ; > , '   ",
"  ) ! ~ { ] ^ / ( _ : < [ } |   ",
"  1 2 3 4 5 6 7 8 9 0 a b c d   ",
"  e f g h i j k l m n o p q r   ",
"  s t u v w x y z A B C D E F   ",
"  G H I J K L M N O P Q R S T   ",
"  U V W X Y Z `  ...+.@.#.$.%.  ",
"  &.*.=.-.;.>.,.'.).!.~.{.].^.  ",
"  /.(._.:.<.[.}.|.<.1.2.3.4.5.  ",
"  6.7.8.9.0.a.b.c.d.e.f.g.h.i.  ",
"  s j.k.l.m.n.o.p.q.r.s.t.u.v.  ",
"  w.x.y.z.A.B.C.D.E.F.G.H.I.J.  ",
"  K.L.M.N.O.P.Q.R.S.T.U.V.W.X.  ",
"    Y.Z.`. +.+++@+#+$+%+&+*+=+  ",
"          -+;+>+,+'+)+!+~+{+    ",
"                ]+^+/+(+_+      "};
