/* XPM */
static char * play_xpm[] = {
"15 15 119 2",
"  	c #97D48A",
". 	c #C5DEC0",
"+ 	c #E5E5E5",
"@ 	c #58C141",
"# 	c #3DB71F",
"$ 	c #77C95F",
"% 	c #CAE0C2",
"& 	c #E4E5E4",
"* 	c #51BF42",
"= 	c #30B415",
"- 	c #38B713",
"; 	c #48BD1A",
"> 	c #85CF60",
", 	c #D0E1C5",
"' 	c #4BBD44",
") 	c #25B017",
"! 	c #2FB414",
"~ 	c #3CB911",
"{ 	c #47BD0F",
"] 	c #54C20F",
"^ 	c #91D45C",
"/ 	c #CFE2BD",
"( 	c #54C140",
"_ 	c #2EB314",
": 	c #2FB413",
"< 	c #37B711",
"[ 	c #41BB0F",
"} 	c #4EC00C",
"| 	c #5BC509",
"1 	c #67C812",
"2 	c #9CD855",
"3 	c #D5E4BF",
"4 	c #E4E5E3",
"5 	c #58C33F",
"6 	c #38B811",
"7 	c #3DB910",
"8 	c #3FBA10",
"9 	c #43BC0E",
"0 	c #4BBF0C",
"a 	c #57C409",
"b 	c #65C905",
"c 	c #72CE02",
"d 	c #84D50B",
"e 	c #ADDF57",
"f 	c #DAE5C3",
"g 	c #56C240",
"h 	c #36B611",
"i 	c #49BE0D",
"j 	c #56C409",
"k 	c #60C706",
"l 	c #6FCD02",
"m 	c #7FD301",
"n 	c #89D602",
"o 	c #97DB04",
"p 	c #BFE557",
"q 	c #DDE7BC",
"r 	c #53C041",
"s 	c #32B512",
"t 	c #3AB810",
"u 	c #3FBA0F",
"v 	c #47BD0E",
"w 	c #57C309",
"x 	c #5DC607",
"y 	c #69CB04",
"z 	c #76D001",
"A 	c #84D401",
"B 	c #96DB01",
"C 	c #A7E101",
"D 	c #BAE717",
"E 	c #DCEAA1",
"F 	c #36B711",
"G 	c #3DB90F",
"H 	c #45BD0D",
"I 	c #4BBE0C",
"J 	c #52C10A",
"K 	c #5EC607",
"L 	c #68CA04",
"M 	c #6CCB02",
"N 	c #7BD201",
"O 	c #89D703",
"P 	c #B9E357",
"Q 	c #55C240",
"R 	c #32B513",
"S 	c #3CB90F",
"T 	c #43BC0D",
"U 	c #4ABE0B",
"V 	c #55C308",
"W 	c #5FC705",
"X 	c #66C903",
"Y 	c #78D10A",
"Z 	c #A4DB57",
"` 	c #D7E4C3",
" .	c #57C33F",
"..	c #3BB90F",
"+.	c #3FBA0E",
"@.	c #45BD0C",
"#.	c #4DC00A",
"$.	c #57C407",
"%.	c #67CA0F",
"&.	c #97D654",
"*.	c #D3E3BF",
"=.	c #58C23F",
"-.	c #38B810",
";.	c #40BB0E",
">.	c #46BD0C",
",.	c #48BE0B",
"'.	c #4FC10C",
").	c #8DD35B",
"!.	c #CEE1BC",
"~.	c #39B810",
"{.	c #4EC014",
"].	c #87D05C",
"^.	c #CFE1C4",
"/.	c #5AC43F",
"(.	c #44BC1A",
"_.	c #7CCC5C",
":.	c #CBE0C1",
"<.	c #94D589",
"[.	c #C6DEBF",
"  . + + + + + + + + + + + + + ",
"@ # $ % & + + + + + + + + + + ",
"* = - ; > , + + + + + + + + + ",
"' ) ! ~ { ] ^ / + + + + + + + ",
"( _ : < [ } | 1 2 3 4 + + + + ",
"5 6 7 8 9 0 a b c d e f + + + ",
"g h 7 9 i } j k l m n o p q + ",
"r s t u v } w x y z A B C D E ",
"r : F G H I J K L M N O P q + ",
"Q R F S T U V W X Y Z ` + + + ",
" .< ..+.@.#.$.%.&.*.4 + + + + ",
"=.-.;.>.,.'.).!.+ + + + + + + ",
"5 ~.;.{.].^.+ + + + + + + + + ",
"/.(._.:.4 + + + + + + + + + + ",
"<.[.+ + + + + + + + + + + + + "};
