/* XPM */
static char * play_all_xpm[] = {
"15 15 88 1",
" 	c None",
".	c #97D48A",
"+	c #C5DEC0",
"@	c #E5E5E5",
"#	c #58C141",
"$	c #3DB71F",
"%	c #77C95F",
"&	c #CAE0C2",
"*	c #E4E5E4",
"=	c #000000",
"-	c #51BF42",
";	c #30B415",
">	c #38B713",
",	c #48BD1A",
"'	c #85CF60",
")	c #4BBD44",
"!	c #25B017",
"~	c #2FB414",
"{	c #3CB911",
"]	c #47BD0F",
"^	c #CFE2BD",
"/	c #54C140",
"(	c #2EB314",
"_	c #2FB413",
":	c #37B711",
"<	c #41BB0F",
"[	c #67C812",
"}	c #9CD855",
"|	c #D5E4BF",
"1	c #E4E5E3",
"2	c #58C33F",
"3	c #38B811",
"4	c #3DB910",
"5	c #3FBA10",
"6	c #43BC0E",
"7	c #65C905",
"8	c #72CE02",
"9	c #84D50B",
"0	c #ADDF57",
"a	c #DAE5C3",
"b	c #56C240",
"c	c #36B611",
"d	c #49BE0D",
"e	c #53C041",
"f	c #32B512",
"g	c #3AB810",
"h	c #3FBA0F",
"i	c #47BD0E",
"j	c #DCEAA1",
"k	c #36B711",
"l	c #3DB90F",
"m	c #45BD0D",
"n	c #5EC607",
"o	c #68CA04",
"p	c #6CCB02",
"q	c #7BD201",
"r	c #89D703",
"s	c #55C240",
"t	c #32B513",
"u	c #3CB90F",
"v	c #43BC0D",
"w	c #5FC705",
"x	c #66C903",
"y	c #78D10A",
"z	c #A4DB57",
"A	c #D7E4C3",
"B	c #57C33F",
"C	c #3BB90F",
"D	c #3FBA0E",
"E	c #45BD0C",
"F	c #67CA0F",
"G	c #97D654",
"H	c #D3E3BF",
"I	c #58C23F",
"J	c #38B810",
"K	c #40BB0E",
"L	c #46BD0C",
"M	c #48BE0B",
"N	c #CEE1BC",
"O	c #39B810",
"P	c #4EC014",
"Q	c #87D05C",
"R	c #5AC43F",
"S	c #44BC1A",
"T	c #7CCC5C",
"U	c #CBE0C1",
"V	c #94D589",
"W	c #C6DEBF",
".+@@@@@@@@@@@@@",
"#$%&*=========@",
"-;>,'=========@",
")!~{]==^@@@@==@",
"/(_:<==[}|1@==@",
"23456==7890a==@",
"bc46d=========@",
"efghi=========j",
"e_klm==nopqr==@",
"stkuv==wxyzA==@",
"B:CDE==FGH1@==@",
"IJKLM==N@@@@==@",
"2OKPQ==@@@@@==@",
"RSTU1==@@@@@==@",
"VW@@@@@@@@@@@@@"};
