/* XPM */
static char * stop_xpm[] = {
"15 15 145 2",
"  	c #D0B2AF",
". 	c #B4675D",
"+ 	c #B6675D",
"@ 	c #B1675D",
"# 	c #A2665F",
"$ 	c #9F665F",
"% 	c #A1665F",
"& 	c #9E665F",
"* 	c #986660",
"= 	c #8D6661",
"- 	c #8A6661",
"; 	c #A0665F",
"> 	c #A7665E",
", 	c #CCB2AF",
"' 	c #AC2514",
") 	c #9C1B0B",
"! 	c #961B0C",
"~ 	c #881B0D",
"{ 	c #761B0F",
"] 	c #741A0F",
"^ 	c #751A0F",
"/ 	c #681A10",
"( 	c #611A11",
"_ 	c #5B1A11",
": 	c #5D1A11",
"< 	c #6F1A0F",
"[ 	c #791A0E",
"} 	c #802418",
"| 	c #9B1B0B",
"1 	c #8F1B0C",
"2 	c #8D1B0D",
"3 	c #831B0E",
"4 	c #731A0F",
"5 	c #701A0F",
"6 	c #651A10",
"7 	c #621A11",
"8 	c #6B1A10",
"9 	c #721A0F",
"0 	c #771A0E",
"a 	c #931B0C",
"b 	c #7D1B0E",
"c 	c #641A10",
"d 	c #5E1A11",
"e 	c #581912",
"f 	c #501912",
"g 	c #501A12",
"h 	c #581A12",
"i 	c #631A10",
"j 	c #761A0F",
"k 	c #7D1A0E",
"l 	c #851B0D",
"m 	c #591912",
"n 	c #671A10",
"o 	c #7F1B0E",
"p 	c #851A0D",
"q 	c #891B0D",
"r 	c #811B0E",
"s 	c #7A1A0E",
"t 	c #661A10",
"u 	c #781A0E",
"v 	c #691A10",
"w 	c #591A11",
"x 	c #A41B0A",
"y 	c #A61B0A",
"z 	c #A51C0A",
"A 	c #B81C08",
"B 	c #9A1B0B",
"C 	c #6E1A0F",
"D 	c #941B0C",
"E 	c #BE1C07",
"F 	c #971B0C",
"G 	c #831B0D",
"H 	c #841B0D",
"I 	c #7E1A0E",
"J 	c #6A1A10",
"K 	c #B41C08",
"L 	c #B11C09",
"M 	c #A71C0A",
"N 	c #B31C09",
"O 	c #B71C09",
"P 	c #951B0C",
"Q 	c #7F1A0E",
"R 	c #7B1B0F",
"S 	c #771B0F",
"T 	c #6D1A10",
"U 	c #BD1C08",
"V 	c #7C1B0E",
"W 	c #A61C0B",
"X 	c #9C1C0B",
"Y 	c #A81C0A",
"Z 	c #921B0C",
"` 	c #911B0C",
" .	c #8A1B0D",
"..	c #871B0D",
"+.	c #841B0E",
"@.	c #731B0F",
"#.	c #B61D09",
"$.	c #941C0C",
"%.	c #971C0C",
"&.	c #9D1C0B",
"*.	c #9F1B0B",
"=.	c #8E1B0D",
"-.	c #861B0E",
";.	c #641A11",
">.	c #B41C09",
",.	c #A31C0B",
"'.	c #7D1B0F",
").	c #8F1B0D",
"!.	c #9F1C0B",
"~.	c #991B0C",
"{.	c #7C1B0F",
"].	c #6C1A10",
"^.	c #8B1B0D",
"/.	c #731A10",
"(.	c #5A1A12",
"_.	c #9B1C0C",
":.	c #8B1C0D",
"<.	c #781A0F",
"[.	c #7A1A0F",
"}.	c #791A0F",
"|.	c #A91C0A",
"1.	c #A51C0B",
"2.	c #9E1C0B",
"3.	c #821B0E",
"4.	c #881B0E",
"5.	c #A01C0B",
"6.	c #951C0C",
"7.	c #7E1B0E",
"8.	c #851B0E",
"9.	c #841C0E",
"0.	c #6D1B10",
"a.	c #AC1C0A",
"b.	c #961C0C",
"c.	c #721B10",
"d.	c #A11C0B",
"e.	c #801B0F",
"f.	c #711B10",
"g.	c #C57166",
"h.	c #AA1C0A",
"i.	c #A21C0B",
"j.	c #991C0C",
"k.	c #741B10",
"l.	c #901B0D",
"m.	c #8A1B0E",
"n.	c #A4706A",
"  . + @ # $ % $ & * = - ; > , ",
"' ) ! ~ { ] ^ / ( _ : < [ [ } ",
"| 1 2 3 ] 4 5 6 7 8 9 4 ] ^ 0 ",
"| | a b c d e f g h i j k ^ 0 ",
"a l 8 m n o p q r s 8 t 0 u { ",
"v t w a x y y z y A A B 5 C { ",
"q ~ D E F G H I 9 J < 1 K 1 / ",
"L M N O q P 2 l Q R S T ^ U V ",
"W X Y X Z ! ` 2  ...+.o @.3 #.",
"$.%.&.&.B *.) D =.q -.+.r ;.>.",
",.F '.). .!.F ~.D 2 -.r {.].^.",
"2 )./.=.(.^.!._.:.r R <.[.}.R ",
"|.1.2.3.4.( _.5.6.7.'.8.4.9.0.",
"a.M ,.b.r 7.c._.d.^.3.2 =.e.f.",
"g.h.W i.j.k.r %.3. .-.l.m.h n."};
