/* XPM */
static char * book_info_xpm[] = {
"16 16 166 2",
"  	c None",
". 	c #E5E5E5",
"+ 	c #B0B5BE",
"@ 	c #59549B",
"# 	c #364068",
"$ 	c #2F4174",
"% 	c #4A4365",
"& 	c #857A60",
"* 	c #AC9996",
"= 	c #A6988E",
"- 	c #A29A8D",
"; 	c #968E8B",
"> 	c #9F9EA2",
", 	c #ADADB3",
"' 	c #A5A7A8",
") 	c #B4B4B7",
"! 	c #A1ADB3",
"~ 	c #696EAA",
"{ 	c #414A76",
"] 	c #262D37",
"^ 	c #FF292E",
"/ 	c #919492",
"( 	c #A0A3AF",
"_ 	c #7B818D",
": 	c #636474",
"< 	c #A0ABBB",
"[ 	c #2C348F",
"} 	c #454BB4",
"| 	c #7C6B8B",
"1 	c #7F8982",
"2 	c #979DA8",
"3 	c #868AA0",
"4 	c #5F5E78",
"5 	c #A3ACB9",
"6 	c #2D3691",
"7 	c #3E44C1",
"8 	c #6E537C",
"9 	c #C47B5D",
"0 	c #BF7961",
"a 	c #646FD2",
"b 	c #5669A0",
"c 	c #7D878A",
"d 	c #8C9196",
"e 	c #88899D",
"f 	c #605D79",
"g 	c #A4A9C2",
"h 	c #2F358D",
"i 	c #3A46B5",
"j 	c #6A5573",
"k 	c #BF7B5D",
"l 	c #C57D56",
"m 	c #463FBC",
"n 	c #3A429F",
"o 	c #666B7C",
"p 	c #919391",
"q 	c #87848B",
"r 	c #635F74",
"s 	c #A4A8C4",
"t 	c #2E3591",
"u 	c #3C46B8",
"v 	c #6C5579",
"w 	c #BD7B60",
"x 	c #B97C57",
"y 	c #664C9E",
"z 	c #393DA3",
"A 	c #636C7F",
"B 	c #8B8D82",
"C 	c #978C87",
"D 	c #7B6C6E",
"E 	c #A4A9C0",
"F 	c #2E3690",
"G 	c #3D45B9",
"H 	c #6E547B",
"I 	c #C17C58",
"J 	c #BC7D61",
"K 	c #9A7385",
"L 	c #463C83",
"M 	c #656D82",
"N 	c #888783",
"O 	c #928383",
"P 	c #7F6B69",
"Q 	c #A3A9C0",
"R 	c #2C358F",
"S 	c #3C44BA",
"T 	c #6D537C",
"U 	c #C37A53",
"V 	c #C07C62",
"W 	c #B87D64",
"X 	c #7E596B",
"Y 	c #696B79",
"Z 	c #888588",
"` 	c #897E7B",
" .	c #7E6B6A",
"..	c #A4AAC2",
"+.	c #2C3490",
"@.	c #3D45BC",
"#.	c #6F557E",
"$.	c #C47B5F",
"%.	c #C07C5D",
"&.	c #B07A63",
"*.	c #6E6B67",
"=.	c #838181",
"-.	c #7C7768",
";.	c #7C6D6A",
">.	c #A4A9C3",
",.	c #2D3591",
"'.	c #3C45BC",
").	c #6F547F",
"!.	c #C07D5D",
"~.	c #C07B5A",
"{.	c #BE7A5B",
"].	c #B27A57",
"^.	c #756D64",
"/.	c #807B83",
"(.	c #787766",
"_.	c #7B6A6A",
":.	c #2D3593",
"<.	c #3843BF",
"[.	c #70557E",
"}.	c #BC8153",
"|.	c #C37D5E",
"1.	c #BD8058",
"2.	c #AD7759",
"3.	c #746965",
"4.	c #847F8D",
"5.	c #686769",
"6.	c #6C626F",
"7.	c #A5A9BE",
"8.	c #2E3389",
"9.	c #3949C1",
"0.	c #73567C",
"a.	c #BB7B5B",
"b.	c #C07B55",
"c.	c #B77B65",
"d.	c #966D6D",
"e.	c #716A6D",
"f.	c #7A797F",
"g.	c #57586F",
"h.	c #5F5D7B",
"i.	c #AFB0BD",
"j.	c #35336A",
"k.	c #3F499F",
"l.	c #705679",
"m.	c #C07964",
"n.	c #BF7D5E",
"o.	c #8C6585",
"p.	c #483B94",
"q.	c #6A6A7B",
"r.	c #74797A",
"s.	c #50545D",
"t.	c #605F76",
"u.	c #D4D3D7",
"v.	c #8387A0",
"w.	c #675763",
"x.	c #666C84",
"y.	c #737B78",
"z.	c #626664",
"A.	c #93929F",
"B.	c #65697C",
"C.	c #5F625F",
"D.	c #D2D2D1",
"E.	c #C4C5C9",
"F.	c #7A7A8E",
"G.	c #414362",
"H.	c #63636D",
"I.	c #D7D7D7",
". + @ # $ % & * = - ; > , ' ) . ",
". ! ~ { ] ^ ^ ^ ^ ^ ^ / ( _ : . ",
". < [ } | ^ ^ ^ ^ ^ ^ 1 2 3 4 . ",
". 5 6 7 8 9 0 ^ ^ a b c d e f . ",
". g h i j k l ^ ^ m n o p q r . ",
". s t u v w x ^ ^ y z A B C D . ",
". E F G H I J ^ ^ K L M N O P . ",
". Q R S T U V ^ ^ W X Y Z `  .. ",
". ..+.@.#.$.%.^ ^ $.&.*.=.-.;.. ",
". >.,.'.).!.~.^ ^ {.].^./.(._.. ",
". g :.<.[.}.|.^ ^ 1.2.3.4.5.6.. ",
". 7.8.9.0.a.b.^ ^ c.d.e.f.g.h.. ",
". i.j.k.l.m.n.^ ^ o.p.q.r.s.t.. ",
". . u.v.w.^ ^ ^ ^ ^ ^ x.y.z.A.. ",
". . . . . ^ ^ ^ ^ ^ ^ B.C.D.. . ",
". . . . . . . . E.F.G.H.I.. . . "};
