/* XPM */
static char * down_xpm[] = {
"15 17 29 1",
" 	c #E5E5E5",
".	c #8E8E8E",
"+	c #CACACA",
"@	c #3B3B3B",
"#	c #B1B1B1",
"$	c #DDDDDD",
"%	c #AAAAAA",
"&	c #2C2C2C",
"*	c #848484",
"=	c #C1C1C1",
"-	c #D0D0D0",
";	c #171717",
">	c #000000",
",	c #787878",
"'	c #747474",
")	c #1A1A1A",
"!	c #D1D1D1",
"~	c #CDCDCD",
"{	c #191919",
"]	c #777777",
"^	c #737373",
"/	c #1B1B1B",
"(	c #CECECE",
"_	c #767676",
":	c #727272",
"<	c #1C1C1C",
"[	c #CCCCCC",
"}	c #C9C9C9",
"|	c #757575",
"       .+      ",
"       @#      ",
"       @#      ",
"       @#      ",
"       @#      ",
"       @#      ",
"       @#      ",
"       @#      ",
"   $%%%&*%%=   ",
"   -;>>>>>>,   ",
"    '>>>>>)!   ",
"    ~{>>>>]    ",
"     ^>>>/(    ",
"     +/>>_     ",
"      :><[     ",
"      }/|      ",
"       .+      "};
