/* XPM */
static char * iterate_all_xpm[] = {
"15 15 7 1",
" 	c None",
".	c #E5E5E5",
"+	c #46BD0C",
"@	c #0B0B0B",
"#	c #000000",
"$	c #8F8F8F",
"%	c #DEDEDE",
"......+........",
"......++.......",
"......+++......",
".....@++++.....",
"....#$+++$#....",
"...@$.++..$@...",
"...#%.+...%#...",
"...#.......#...",
"...#%...+.%#...",
"...@$..++.$@...",
"....#$+++$#....",
".....++++@.....",
"......+++......",
".......++......",
"........+......"};
