/* XPM */
static char * iterate_stop_xpm[] = {
"15 15 6 1",
" 	c None",
".	c #E5E5E5",
"+	c #871B0D",
"@	c #DEDEDE",
"#	c #000000",
"$	c #8F8F8F",
"...............",
".....+++++.....",
".....+++++.....",
"...@#+++++#@...",
"..@#$+++++$#@..",
"..#$@+++++@$#..",
"..#@@.....@@#..",
"..#@......@@#..",
"..#@@.....@@#..",
"..#@@.....@@#..",
"..#$@@...@@$#..",
"...#$@@@@@$#...",
"....#######....",
"...............",
"..............."};
