/* XPM */
static char * open_signal_xpm[] = {
"17 15 116 2",
"  	c #E5E5E5",
". 	c #D5D5E1",
"+ 	c #E0E0E4",
"@ 	c #E4E4E5",
"# 	c #DEDEE3",
"$ 	c #CBCBDF",
"% 	c #CCCCDF",
"& 	c #CACADE",
"* 	c #DCDCE3",
"= 	c #BBBBDA",
"- 	c #D3D3E1",
"; 	c #BCBCDB",
"> 	c #DDDDE3",
", 	c #DFDFE4",
"' 	c #D9D9E2",
") 	c #8686CD",
"! 	c #B2B2D8",
"~ 	c #D2D2E0",
"{ 	c #7E7ECB",
"] 	c #D1D1E0",
"^ 	c #AAAAD6",
"/ 	c #B0B0D8",
"( 	c #C4C4DD",
"_ 	c #AFAFD8",
": 	c #A0A0D4",
"< 	c #4E4EBF",
"[ 	c #7575C9",
"} 	c #4949BE",
"| 	c #BDBDDB",
"1 	c #A4A4D5",
"2 	c #9292D0",
"3 	c #8F8FD0",
"4 	c #6B6BC7",
"5 	c #7777CA",
"6 	c #6767C6",
"7 	c #1D1DB3",
"8 	c #3737BA",
"9 	c #1313B1",
"0 	c #7878CA",
"a 	c #2020B4",
"b 	c #5656C2",
"c 	c #2D2DB7",
"d 	c #2424B5",
"e 	c #1111B0",
"f 	c #1515B1",
"g 	c #4D4DBF",
"h 	c #0404AD",
"i 	c #7A7ACA",
"j 	c #5757C2",
"k 	c #5B5BC3",
"l 	c #4A4ABE",
"m 	c #2A2AB7",
"n 	c #0202AD",
"o 	c #1717B2",
"p 	c #0101AC",
"q 	c #0A0AAE",
"r 	c #0202AC",
"s 	c #1212B1",
"t 	c #0000AC",
"u 	c #9191D0",
"v 	c #D5CBD8",
"w 	c #241AAC",
"x 	c #1C12AA",
"y 	c #140BA8",
"z 	c #0C03A6",
"A 	c #0A00A5",
"B 	c #0C02A6",
"C 	c #0A01A6",
"D 	c #190FA9",
"E 	c #CAC0D5",
"F 	c #5A5AC2",
"G 	c #3E3EBB",
"H 	c #2626B5",
"I 	c #0505AD",
"J 	c #1F1FB4",
"K 	c #0303AD",
"L 	c #0707AE",
"M 	c #4646BD",
"N 	c #8A8ACE",
"O 	c #8181CC",
"P 	c #8484CD",
"Q 	c #7676C9",
"R 	c #2222B5",
"S 	c #5656C1",
"T 	c #1E1EB4",
"U 	c #1919B2",
"V 	c #6969C6",
"W 	c #DBDBE2",
"X 	c #9F9FD4",
"Y 	c #8C8CCF",
"Z 	c #8585CD",
"` 	c #4444BD",
" .	c #6E6EC7",
"..	c #5D5DC3",
"+.	c #1B1BB3",
"@.	c #5050C0",
"#.	c #9E9ED3",
"$.	c #ADADD7",
"%.	c #E1E1E4",
"&.	c #9D9DD3",
"*.	c #AFAFD7",
"=.	c #9393D0",
"-.	c #A5A5D5",
";.	c #5C5CC3",
">.	c #B6B6D9",
",.	c #B3B3D9",
"'.	c #C8C8DE",
").	c #CECEDF",
"!.	c #9696D1",
"~.	c #D4D4E1",
"{.	c #E2E2E4",
"].	c #C1C1DC",
"^.	c #C7C7DE",
"/.	c #D6D6E1",
"(.	c #C5C5DD",
"_.	c #D8D8E2",
"      .           + + @ #         ",
"      $           % & * = -       ",
"      ; +   > , ' ) ! ~ { &       ",
"  ] + ^ / ' ( _ : < [ ; } |       ",
"  1 ! 2 3 4 : 5 6 7 8 : 9 1       ",
"  ) ) 0 } a b c d e f g h i @     ",
"  j k l m n o p q r h s t s < u   ",
"v w x y z A B A A A A C A A A D E ",
"  F k G H I J t K t t L t o M N   ",
"  O P Q < R S T 8 I U V t 3 W >   ",
"  X / Y Z ` u  ...+.@.#.e $.      ",
"  ~ %.&.*.=.( -.&.;.{ >.M (       ",
"      ,.+ = ' > '.u ^ ).!.]       ",
"      ~.  %.    {.].^./.(.,       ",
"      #           _.{.{.>         "};
