/* XPM */
static char * pause_xpm[] = {
"12 15 178 2",
"  	c #E3CFBC",
". 	c #DFA675",
"+ 	c #DFA97A",
"@ 	c #EDAF6E",
"# 	c #EDB273",
"$ 	c #E6DFD9",
"% 	c #E4D4C8",
"& 	c #D2A68C",
"* 	c #D1AEA1",
"= 	c #E8CCB6",
"- 	c #E8D1C0",
"; 	c #E8E0D9",
"> 	c #E2A770",
", 	c #DF7D24",
"' 	c #EB8A27",
") 	c #F0912C",
"! 	c #EB8C2D",
"~ 	c #E8CFB5",
"{ 	c #E1AC7B",
"] 	c #D0732A",
"^ 	c #D5986F",
"/ 	c #E1B9A0",
"( 	c #D3A086",
"_ 	c #DCC3B8",
": 	c #EBAC6A",
"< 	c #DB8337",
"[ 	c #EE9538",
"} 	c #E18D40",
"| 	c #DC8A44",
"1 	c #E8CFB6",
"2 	c #E3AC78",
"3 	c #E98C30",
"4 	c #F18F26",
"5 	c #E4954C",
"6 	c #C68868",
"7 	c #D7B8A9",
"8 	c #E2B288",
"9 	c #F08E27",
"0 	c #EE8E29",
"a 	c #D28B58",
"b 	c #EC8C2A",
"c 	c #E8D0B5",
"d 	c #E5AE7B",
"e 	c #EB9846",
"f 	c #E79341",
"g 	c #EA8B2B",
"h 	c #EB8D2F",
"i 	c #EAB37B",
"j 	c #E8B98C",
"k 	c #ED9236",
"l 	c #F08B20",
"m 	c #E6913E",
"n 	c #EF902C",
"o 	c #E8D0B6",
"p 	c #E6C1A2",
"q 	c #E99E58",
"r 	c #E68C35",
"s 	c #E79445",
"t 	c #E9994B",
"u 	c #EABC8D",
"v 	c #E8C9AE",
"w 	c #D29C7F",
"x 	c #E08E44",
"y 	c #F08F28",
"z 	c #F08F2A",
"A 	c #E8D0B7",
"B 	c #EBC095",
"C 	c #E79241",
"D 	c #E98E34",
"E 	c #EB9A4B",
"F 	c #E5A36A",
"G 	c #DAC5C1",
"H 	c #EDAF6D",
"I 	c #E98D32",
"J 	c #EE902E",
"K 	c #F08F29",
"L 	c #DE883C",
"M 	c #E3D5CB",
"N 	c #EBBB8A",
"O 	c #CF926D",
"P 	c #DEA478",
"Q 	c #EA9A4C",
"R 	c #E8903B",
"S 	c #E5B283",
"T 	c #EBB175",
"U 	c #DF904A",
"V 	c #EE9335",
"W 	c #EB943F",
"X 	c #E2852D",
"Y 	c #E7D1BA",
"Z 	c #EAB884",
"` 	c #DF904B",
" .	c #DEB298",
"..	c #E5A064",
"+.	c #E7872A",
"@.	c #E9BD92",
"#.	c #E2C4AF",
"$.	c #D79463",
"%.	c #EA9948",
"&.	c #DE8C45",
"*.	c #B36D54",
"=.	c #E8D2BB",
"-.	c #EABB8D",
";.	c #E2924B",
">.	c #DDB49D",
",.	c #E59B57",
"'.	c #EA8927",
").	c #EBBF94",
"!.	c #E5C6AE",
"~.	c #E68F3B",
"{.	c #EF9233",
"].	c #ED9131",
"^.	c #C87B48",
"/.	c #E8DBD0",
"(.	c #EBB378",
"_.	c #E88F38",
":.	c #ED953C",
"<.	c #EB8E2F",
"[.	c #E48830",
"}.	c #EAC5A1",
"|.	c #ECAE6D",
"1.	c #E78F3B",
"2.	c #F08D24",
"3.	c #C77136",
"4.	c #E4D7CE",
"5.	c #E7BA90",
"6.	c #E39146",
"7.	c #EE8F2D",
"8.	c #EE902F",
"9.	c #E48326",
"0.	c #E5BD9A",
"a.	c #EBAD6C",
"b.	c #F28B1D",
"c.	c #F28C1E",
"d.	c #EF9231",
"e.	c #CF7B3E",
"f.	c #DED1CB",
"g.	c #DFB797",
"h.	c #D39A79",
"i.	c #DD9B67",
"j.	c #EC9843",
"k.	c #C97438",
"l.	c #C7A59F",
"m.	c #C9A194",
"n.	c #D17E3F",
"o.	c #F18B1E",
"p.	c #F18D22",
"q.	c #E59A54",
"r.	c #E4D3C3",
"s.	c #CDA38F",
"t.	c #BF8777",
"u.	c #D59A73",
"v.	c #E2A26D",
"w.	c #EB9239",
"x.	c #DDAF8C",
"y.	c #D19F80",
"z.	c #AC5C3B",
"A.	c #D98844",
"B.	c #EF8C24",
"C.	c #E8CFB3",
"D.	c #C89C89",
"E.	c #994F43",
"F.	c #C78E74",
"G.	c #D1A28C",
"H.	c #DCAA88",
"I.	c #EBB781",
"J.	c #DFBBA0",
"K.	c #C16F3D",
"L.	c #C67E54",
"M.	c #D79B73",
"N.	c #EB9E51",
"O.	c #E7D7C6",
"P.	c #DCB18F",
"Q.	c #A2543C",
"R.	c #B07770",
"S.	c #CAA4A0",
"T.	c #DAAA8E",
"U.	c #E9C39C",
"  . + @ # $ % & * = - ; ",
"> , ' ) ! ~ { ] ^ / ( _ ",
": < [ } | 1 2 3 4 5 6 7 ",
"8 9 0 a b c d e f g h i ",
"j k l m n o p q r s t u ",
"v w x y z A B C D E F G ",
"H I J K L M N O P Q R S ",
"T U V W X Y Z `  ...+.@.",
"#.$.%.&.*.=.-.;.>.,.'.).",
"!.~.{.].^./.(._.:.<.[.}.",
"|.1.K 2.3.4.5.6.7.8.9.0.",
"a.b.c.d.e.f.g.h.i.j.k.l.",
"m.n.o.p.q.r.s.t.u.v.w.x.",
"y.z.A.B.b.C.D.E.F.G.H.I.",
"J.K.L.M.N.O.P.Q.R.S.T.U."};
