/* XPM */
static char * play_unactive_xpm[] = {
"15 15 69 1",
" 	g None",
".	g #BABABA",
"+	g #D3D3D3",
"@	g #E5E5E5",
"#	g #939393",
"$	g #828282",
"%	g #A5A5A5",
"&	g #D6D6D6",
"*	g #909090",
"=	g #7B7B7B",
"-	g #7F7F7F",
";	g #888888",
">	g #ADADAD",
",	g #D9D9D9",
"'	g #8D8D8D",
")	g #757575",
"!	g #7A7A7A",
"~	g #818181",
"{	g #868686",
"]	g #B3B3B3",
"^	g #D8D8D8",
"/	g #929292",
"(	g #7E7E7E",
"_	g #838383",
":	g #8A8A8A",
"<	g #919191",
"[	g #979797",
"}	g #B8B8B8",
"|	g #DBDBDB",
"1	g #E4E4E4",
"2	g #949494",
"3	g #858585",
"4	g #898989",
"5	g #8F8F8F",
"6	g #959595",
"7	g #9C9C9C",
"8	g #A6A6A6",
"9	g #C1C1C1",
"0	g #DEDEDE",
"a	g #7D7D7D",
"b	g #878787",
"c	g #8E8E8E",
"d	g #9A9A9A",
"e	g #A3A3A3",
"f	g #A8A8A8",
"g	g #AFAFAF",
"h	g #CACACA",
"i	g #DFDFDF",
"j	g #7C7C7C",
"k	g #808080",
"l	g #989898",
"m	g #9E9E9E",
"n	g #AEAEAE",
"o	g #B7B7B7",
"p	g #C3C3C3",
"q	g #8C8C8C",
"r	g #A1A1A1",
"s	g #C7C7C7",
"t	g #848484",
"u	g #969696",
"v	g #A0A0A0",
"w	g #BCBCBC",
"x	g #DCDCDC",
"y	g #B5B5B5",
"z	g #DADADA",
"A	g #8B8B8B",
"B	g #B1B1B1",
"C	g #D7D7D7",
"D	g #B9B9B9",
".+@@@@@@@@@@@@@",
"#$%&@@@@@@@@@@@",
"*=-;>,@@@@@@@@@",
"')!~{']^@@@@@@@",
"/!!(_:<[}|1@@@@",
"2-~$34567890@@@",
"#a~3b:c#defghi@",
"<jk${:c<lm%nop0",
"<!(~{;q/[lrfsi@",
"#j(~t;'/uvwx@@@",
"2(k${45lyz1@@@@",
"2-_{bABC@@@@@@@",
"2-_A>^@@@@@@@@@",
"u{f&1@@@@@@@@@@",
"D+@@@@@@@@@@@@@"};
