/* XPM */
static char * signal_info_xpm[] = {
"17 15 102 2",
"  	c None",
". 	c #E5E5E5",
"+ 	c #D5D5E1",
"@ 	c #E0E0E4",
"# 	c #E4E4E5",
"$ 	c #DEDEE3",
"% 	c #CBCBDF",
"& 	c #FF292E",
"* 	c #DCDCE3",
"= 	c #BBBBDA",
"- 	c #D3D3E1",
"; 	c #BCBCDB",
"> 	c #D2D2E0",
", 	c #7E7ECB",
"' 	c #CACADE",
") 	c #D1D1E0",
"! 	c #AAAAD6",
"~ 	c #B0B0D8",
"{ 	c #D9D9E2",
"] 	c #C4C4DD",
"^ 	c #4E4EBF",
"/ 	c #7575C9",
"( 	c #4949BE",
"_ 	c #BDBDDB",
": 	c #A4A4D5",
"< 	c #B2B2D8",
"[ 	c #9292D0",
"} 	c #8F8FD0",
"| 	c #6B6BC7",
"1 	c #A0A0D4",
"2 	c #1D1DB3",
"3 	c #3737BA",
"4 	c #1313B1",
"5 	c #8686CD",
"6 	c #7878CA",
"7 	c #2020B4",
"8 	c #5656C2",
"9 	c #1111B0",
"0 	c #1515B1",
"a 	c #4D4DBF",
"b 	c #0404AD",
"c 	c #7A7ACA",
"d 	c #5757C2",
"e 	c #5B5BC3",
"f 	c #4A4ABE",
"g 	c #2A2AB7",
"h 	c #0202AD",
"i 	c #1717B2",
"j 	c #0202AC",
"k 	c #1212B1",
"l 	c #0000AC",
"m 	c #9191D0",
"n 	c #D5CBD8",
"o 	c #241AAC",
"p 	c #1C12AA",
"q 	c #140BA8",
"r 	c #0C03A6",
"s 	c #0A00A5",
"t 	c #0C02A6",
"u 	c #0A01A6",
"v 	c #190FA9",
"w 	c #CAC0D5",
"x 	c #5A5AC2",
"y 	c #3E3EBB",
"z 	c #2626B5",
"A 	c #0505AD",
"B 	c #1F1FB4",
"C 	c #0707AE",
"D 	c #4646BD",
"E 	c #8A8ACE",
"F 	c #8181CC",
"G 	c #8484CD",
"H 	c #7676C9",
"I 	c #2222B5",
"J 	c #5656C1",
"K 	c #1919B2",
"L 	c #6969C6",
"M 	c #DBDBE2",
"N 	c #DDDDE3",
"O 	c #9F9FD4",
"P 	c #8C8CCF",
"Q 	c #8585CD",
"R 	c #4444BD",
"S 	c #1B1BB3",
"T 	c #5050C0",
"U 	c #9E9ED3",
"V 	c #ADADD7",
"W 	c #E1E1E4",
"X 	c #9D9DD3",
"Y 	c #AFAFD7",
"Z 	c #9393D0",
"` 	c #5C5CC3",
" .	c #B6B6D9",
"..	c #B3B3D9",
"+.	c #CECEDF",
"@.	c #9696D1",
"#.	c #D4D4E1",
"$.	c #D6D6E1",
"%.	c #C5C5DD",
"&.	c #DFDFE4",
"*.	c #D8D8E2",
"=.	c #E2E2E4",
". . . + . . . . . @ @ # $ . . . . ",
". . . % . & & & & & & * = - . . . ",
". . . ; @ & & & & & & > , ' . . . ",
". ) @ ! ~ { ] & & ^ / ; ( _ . . . ",
". : < [ } | 1 & & 2 3 1 4 : . . . ",
". 5 5 6 ( 7 8 & & 9 0 a b c # . . ",
". d e f g h i & & j b k l k ^ m . ",
"n o p q r s t & & s s u s s s v w ",
". x e y z A B & & l l C l i D E . ",
". F G H ^ I J & & A K L l } M N . ",
". O ~ P Q R m & & S T U 9 V . . . ",
". > W X Y Z ] & & ` ,  .D ] . . . ",
". . . ..@ & & & & & & +.@.) . . . ",
". . . #.. & & & & & & $.%.&.. . . ",
". . . $ . . . . . *.=.=.N . . . . "};
