/* XPM */
static char * stop_unactive_xpm[] = {
"15 15 47 1",
" 	g None",
".	g #BBBBBB",
"+	g #7D7D7D",
"@	g #7E7E7E",
"#	g #7C7C7C",
"$	g #777777",
"%	g #767676",
"&	g #747474",
"*	g #717171",
"=	g #707070",
"-	g #797979",
";	g #B9B9B9",
">	g #4C4C4C",
",	g #404040",
"'	g #3E3E3E",
")	g #3A3A3A",
"!	g #353535",
"~	g #343434",
"{	g #303030",
"]	g #2E2E2E",
"^	g #2D2D2D",
"/	g #323232",
"(	g #3C3C3C",
"_	g #393939",
":	g #333333",
"<	g #2F2F2F",
"[	g #313131",
"}	g #3D3D3D",
"|	g #373737",
"1	g #2B2B2B",
"2	g #292929",
"3	g #2C2C2C",
"4	g #363636",
"5	g #383838",
"6	g #424242",
"7	g #434343",
"8	g #494949",
"9	g #3F3F3F",
"0	g #4A4A4A",
"a	g #474747",
"b	g #444444",
"c	g #484848",
"d	g #414141",
"e	g #3B3B3B",
"f	g #454545",
"g	g #898989",
"h	g #7F7F7F",
".+@#$%$%%&*=$-;",
">,')!~~{]^^/!!'",
",((_~::<<[::~~!",
",,}|<^1223<~4~!",
"}_[1{5_)5![{!!!",
"[{3}67777889:/!",
"))'09__|:[/(a({",
"abac)'(_|4!/~0|",
"bdbd}'}(e)_5~_8",
"'9dd9d,'())_5<c",
"79|(ed99'()5|[e",
"((~(3ed,(54!4!4",
"b7d5)],69||_))/",
"fb795|~,6e5((5~",
"gfb6,~595e)}e3h"};
